<?xml version="1.0"?>
<svg xmlns="http://www.w3.org/2000/svg" version="1.1" width="564.4236450195312pt" height="449.4333190917969pt" viewBox="7.893474518476182 270.1907691666604 564.4236477556558 449.4333333333334" preserveAspectRatio="none" xmlns:xlink="http://www.w3.org/1999/xlink">
  <defs>
  </defs>
  <path d="M177.36276245117188,326.6380920410156 L186.66275024414062,326.6380920410156 " stroke="#6E6E6E" fill="none" stroke-width="1" stroke-opacity="1" />
  <path d="M192.36276245117188,326.6380920410156 L186.66275024414062,328.85809326171875 L186.66275024414062,324.4181213378906 L192.36276245117188,326.6380920410156 " stroke="none" fill="#6E6E6E" fill-rule="evenodd" stroke-width="0" fill-opacity="1" />
  <path d="M192.36276245117188,326.6380920410156 L186.66275024414062,328.85809326171875 L186.66275024414062,324.4181213378906 L192.36276245117188,326.6380920410156 " stroke="#6E6E6E" fill="none" stroke-width="1" stroke-opacity="1" />
  <path d="M87.96276092529297,326.6380920410156 L97.26276397705078,326.6380920410156 " stroke="#6E6E6E" fill="none" stroke-width="1" stroke-opacity="1" />
  <path d="M102.96276092529297,326.6380920410156 L97.26275634765625,328.85809326171875 L97.26275634765625,324.4181213378906 L102.96276092529297,326.6380920410156 " stroke="none" fill="#6E6E6E" fill-rule="evenodd" stroke-width="0" fill-opacity="1" />
  <path d="M102.96276092529297,326.6380920410156 L97.26275634765625,328.85809326171875 L97.26275634765625,324.4181213378906 L102.96276092529297,326.6380920410156 " stroke="#6E6E6E" fill="none" stroke-width="1" stroke-opacity="1" />
  <path d="M75.75819396972656,371.59161376953125 L102.92495727539062,352.62957763671875 " stroke="#6E6E6E" fill="none" stroke-width="1" stroke-opacity="1" />
  <path d="M107.59899139404297,349.3671569824219 L104.1955795288086,354.45001220703125 L101.65432739257812,350.8091735839844 L107.59899139404297,349.3671569824219 " stroke="none" fill="#6E6E6E" fill-rule="evenodd" stroke-width="0" fill-opacity="1" />
  <path d="M107.59899139404297,349.3671569824219 L104.1955795288086,354.45001220703125 L101.65432739257812,350.8091735839844 L107.59899139404297,349.3671569824219 " stroke="#6E6E6E" fill="none" stroke-width="1" stroke-opacity="1" />
  <path d="M451.05828857421875,346.90869140625 L483.2031555175781,346.50030517578125 " stroke="#6E6E6E" fill="none" stroke-width="1" stroke-opacity="1" />
  <path d="M488.9026794433594,346.42791748046875 L483.2313537597656,348.7201232910156 L483.1749572753906,344.2804870605469 L488.9026794433594,346.42791748046875 " stroke="none" fill="#6E6E6E" fill-rule="evenodd" stroke-width="0" fill-opacity="1" />
  <path d="M488.9026794433594,346.42791748046875 L483.2313537597656,348.7201232910156 L483.1749572753906,344.2804870605469 L488.9026794433594,346.42791748046875 " stroke="#6E6E6E" fill="none" stroke-width="1" stroke-opacity="1" />
  <path d="M83.73331451416016,478.56903076171875 L371.3612365722656,364.26910400390625 " stroke="#6E6E6E" fill="none" stroke-width="1" stroke-opacity="1" />
  <path d="M376.6582946777344,362.1640930175781 L372.1810607910156,366.3321533203125 L370.5413818359375,362.20599365234375 L376.6582946777344,362.1640930175781 " stroke="none" fill="#6E6E6E" fill-rule="evenodd" stroke-width="0" fill-opacity="1" />
  <path d="M376.6582946777344,362.1640930175781 L372.1810607910156,366.3321533203125 L370.5413818359375,362.20599365234375 L376.6582946777344,362.1640930175781 " stroke="#6E6E6E" fill="none" stroke-width="1" stroke-opacity="1" />
  <path d="M450.9232482910156,450.68109130859375 L493.3403625488281,426.788818359375 " stroke="#6E6E6E" fill="none" stroke-width="1" stroke-opacity="1" />
  <path d="M498.3067321777344,423.99139404296875 L494.4299011230469,428.7230529785156 L492.2508850097656,424.8545227050781 L498.3067321777344,423.99139404296875 " stroke="none" fill="#6E6E6E" fill-rule="evenodd" stroke-width="0" fill-opacity="1" />
  <path d="M498.3067321777344,423.99139404296875 L494.4299011230469,428.7230529785156 L492.2508850097656,424.8545227050781 L498.3067321777344,423.99139404296875 " stroke="#6E6E6E" fill="none" stroke-width="1" stroke-opacity="1" />
  <path d="M452.4837341308594,470.7558288574219 L483.165283203125,470.7558288574219 " stroke="#6E6E6E" fill="none" stroke-width="1" stroke-opacity="1" />
  <path d="M488.86529541015625,470.75579833984375 L483.165283203125,472.9757995605469 L483.165283203125,468.53582763671875 L488.86529541015625,470.75579833984375 " stroke="none" fill="#6E6E6E" fill-rule="evenodd" stroke-width="0" fill-opacity="1" />
  <path d="M488.86529541015625,470.75579833984375 L483.165283203125,472.9757995605469 L483.165283203125,468.53582763671875 L488.86529541015625,470.75579833984375 " stroke="#6E6E6E" fill="none" stroke-width="1" stroke-opacity="1" />
  <path d="M450.92724609375,490.8327331542969 L493.3404235839844,514.7228393554688 " stroke="#6E6E6E" fill="none" stroke-width="1" stroke-opacity="1" />
  <path d="M498.3067321777344,517.5202026367188 L492.2508544921875,516.6570434570312 L494.4299011230469,512.78857421875 L498.3067321777344,517.5202026367188 " stroke="none" fill="#6E6E6E" fill-rule="evenodd" stroke-width="0" fill-opacity="1" />
  <path d="M498.3067321777344,517.5202026367188 L492.2508544921875,516.6570434570312 L494.4299011230469,512.78857421875 L498.3067321777344,517.5202026367188 " stroke="#6E6E6E" fill="none" stroke-width="1" stroke-opacity="1" />
  <path d="M89.23551940917969,489.02484130859375 L372.3926696777344,473.1590881347656 " stroke="#6E6E6E" fill="none" stroke-width="1" stroke-opacity="1" />
  <path d="M378.083740234375,472.8402099609375 L372.5168762207031,475.3756103515625 L372.2684631347656,470.94256591796875 L378.083740234375,472.8402099609375 " stroke="none" fill="#6E6E6E" fill-rule="evenodd" stroke-width="0" fill-opacity="1" />
  <path d="M378.083740234375,472.8402099609375 L372.5168762207031,475.3756103515625 L372.2684631347656,470.94256591796875 L378.083740234375,472.8402099609375 " stroke="#6E6E6E" fill="none" stroke-width="1" stroke-opacity="1" />
  <path d="M178.79998779296875,431.3174133300781 L192.99313354492188,426.3641357421875 " stroke="#6E6E6E" fill="none" stroke-width="1" stroke-opacity="1" />
  <path d="M198.37481689453125,424.4859619140625 L193.72463989257812,428.46014404296875 L192.2616424560547,424.2680969238281 L198.37481689453125,424.4859619140625 " stroke="none" fill="#6E6E6E" fill-rule="evenodd" stroke-width="0" fill-opacity="1" />
  <path d="M198.37481689453125,424.4859619140625 L193.72463989257812,428.46014404296875 L192.2616424560547,424.2680969238281 L198.37481689453125,424.4859619140625 " stroke="#6E6E6E" fill="none" stroke-width="1" stroke-opacity="1" />
  <path d="M178.79998779296875,457.2825622558594 L192.9931640625,462.2358703613281 " stroke="#6E6E6E" fill="none" stroke-width="1" stroke-opacity="1" />
  <path d="M198.37481689453125,464.1140441894531 L192.2616424560547,464.3318786621094 L193.72463989257812,460.13983154296875 L198.37481689453125,464.1140441894531 " stroke="none" fill="#6E6E6E" fill-rule="evenodd" stroke-width="0" fill-opacity="1" />
  <path d="M198.37481689453125,464.1140441894531 L192.2616424560547,464.3318786621094 L193.72463989257812,460.13983154296875 L198.37481689453125,464.1140441894531 " stroke="#6E6E6E" fill="none" stroke-width="1" stroke-opacity="1" />
  <path d="M80.81080627441406,476.12249755859375 L100.2795181274414,465.93084716796875 " stroke="#6E6E6E" fill="none" stroke-width="1" stroke-opacity="1" />
  <path d="M105.32941436767578,463.2872619628906 L101.30911254882812,467.89764404296875 L99.24990844726562,463.9640197753906 L105.32941436767578,463.2872619628906 " stroke="none" fill="#6E6E6E" fill-rule="evenodd" stroke-width="0" fill-opacity="1" />
  <path d="M105.32941436767578,463.2872619628906 L101.30911254882812,467.89764404296875 L99.24990844726562,463.9640197753906 L105.32941436767578,463.2872619628906 " stroke="#6E6E6E" fill="none" stroke-width="1" stroke-opacity="1" />
  <path d="M178.79998779296875,537.8999633789062 L188.09999084472656,537.8999633789062 " stroke="#6E6E6E" fill="none" stroke-width="1" stroke-opacity="1" />
  <path d="M193.79998779296875,537.89990234375 L188.0999755859375,540.1199340820312 L188.0999755859375,535.679931640625 L193.79998779296875,537.89990234375 " stroke="none" fill="#6E6E6E" fill-rule="evenodd" stroke-width="0" fill-opacity="1" />
  <path d="M193.79998779296875,537.89990234375 L188.0999755859375,540.1199340820312 L188.0999755859375,535.679931640625 L193.79998779296875,537.89990234375 " stroke="#6E6E6E" fill="none" stroke-width="1" stroke-opacity="1" />
  <path d="M80.8108139038086,506.07745361328125 L100.27950286865234,516.2691040039062 " stroke="#6E6E6E" fill="none" stroke-width="1" stroke-opacity="1" />
  <path d="M105.32940673828125,518.9127197265625 L99.2499008178711,518.2359008789062 L101.3091049194336,514.3023071289062 L105.32940673828125,518.9127197265625 " stroke="none" fill="#6E6E6E" fill-rule="evenodd" stroke-width="0" fill-opacity="1" />
  <path d="M105.32940673828125,518.9127197265625 L99.2499008178711,518.2359008789062 L101.3091049194336,514.3023071289062 L105.32940673828125,518.9127197265625 " stroke="#6E6E6E" fill="none" stroke-width="1" stroke-opacity="1" />
  <path d="M178.79998779296875,600.2999267578125 L188.09999084472656,600.2999267578125 " stroke="#6E6E6E" fill="none" stroke-width="1" stroke-opacity="1" />
  <path d="M193.79998779296875,600.2999267578125 L188.0999755859375,602.5199584960938 L188.0999755859375,598.0799560546875 L193.79998779296875,600.2999267578125 " stroke="none" fill="#6E6E6E" fill-rule="evenodd" stroke-width="0" fill-opacity="1" />
  <path d="M193.79998779296875,600.2999267578125 L188.0999755859375,602.5199584960938 L188.0999755859375,598.0799560546875 L193.79998779296875,600.2999267578125 " stroke="#6E6E6E" fill="none" stroke-width="1" stroke-opacity="1" />
  <path d="M69.32823181152344,512.021728515625 L118.58647155761719,572.1895141601562 " stroke="#6E6E6E" fill="none" stroke-width="1" stroke-opacity="1" />
  <path d="M122.1972427368164,576.5999755859375 L116.86869812011719,573.5957641601562 L120.30422973632812,570.783203125 L122.1972427368164,576.5999755859375 " stroke="none" fill="#6E6E6E" fill-rule="evenodd" stroke-width="0" fill-opacity="1" />
  <path d="M122.1972427368164,576.5999755859375 L116.86869812011719,573.5957641601562 L120.30422973632812,570.783203125 L122.1972427368164,576.5999755859375 " stroke="#6E6E6E" fill="none" stroke-width="1" stroke-opacity="1" />
  <path d="M178.79998779296875,662.699951171875 L188.09999084472656,662.699951171875 " stroke="#6E6E6E" fill="none" stroke-width="1" stroke-opacity="1" />
  <path d="M193.79998779296875,662.699951171875 L188.0999755859375,664.9199829101562 L188.0999755859375,660.47998046875 L193.79998779296875,662.699951171875 " stroke="none" fill="#6E6E6E" fill-rule="evenodd" stroke-width="0" fill-opacity="1" />
  <path d="M193.79998779296875,662.699951171875 L188.0999755859375,664.9199829101562 L188.0999755859375,660.47998046875 L193.79998779296875,662.699951171875 " stroke="#6E6E6E" fill="none" stroke-width="1" stroke-opacity="1" />
  <path d="M63.86674499511719,513.4938354492188 L126.61917877197266,633.94482421875 " stroke="#6E6E6E" fill="none" stroke-width="1" stroke-opacity="1" />
  <path d="M129.25279235839844,638.9999389648438 L124.65035247802734,634.9705810546875 L128.5880126953125,632.9191284179688 L129.25279235839844,638.9999389648438 " stroke="none" fill="#6E6E6E" fill-rule="evenodd" stroke-width="0" fill-opacity="1" />
  <path d="M129.25279235839844,638.9999389648438 L124.65035247802734,634.9705810546875 L128.5880126953125,632.9191284179688 L129.25279235839844,638.9999389648438 " stroke="#6E6E6E" fill="none" stroke-width="1" stroke-opacity="1" />
  <path d="M454.9105224609375,618.930419921875 L489.6471862792969,609.618896484375 " stroke="#6E6E6E" fill="none" stroke-width="1" stroke-opacity="1" />
  <path d="M495.1528015136719,608.14306640625 L490.22198486328125,611.7632446289062 L489.0723876953125,607.474609375 L495.1528015136719,608.14306640625 " stroke="none" fill="#6E6E6E" fill-rule="evenodd" stroke-width="0" fill-opacity="1" />
  <path d="M495.1528015136719,608.14306640625 L490.22198486328125,611.7632446289062 L489.0723876953125,607.474609375 L495.1528015136719,608.14306640625 " stroke="#6E6E6E" fill="none" stroke-width="1" stroke-opacity="1" />
  <path d="M454.9105224609375,639.9691772460938 L490.30792236328125,650.4998779296875 " stroke="#6E6E6E" fill="none" stroke-width="1" stroke-opacity="1" />
  <path d="M495.771240234375,652.1251831054688 L489.67486572265625,652.627685546875 L490.94091796875,648.3720092773438 L495.771240234375,652.1251831054688 " stroke="none" fill="#6E6E6E" fill-rule="evenodd" stroke-width="0" fill-opacity="1" />
  <path d="M495.771240234375,652.1251831054688 L489.67486572265625,652.627685546875 L490.94091796875,648.3720092773438 L495.771240234375,652.1251831054688 " stroke="#6E6E6E" fill="none" stroke-width="1" stroke-opacity="1" />
  <path d="M347.51898193359375,610.1724243164062 L375.0032043457031,617.50634765625 " stroke="#6E6E6E" fill="none" stroke-width="1" stroke-opacity="1" />
  <path d="M380.5105285644531,618.9758911132812 L374.4308776855469,619.6512451171875 L375.5755920410156,615.3613891601562 L380.5105285644531,618.9758911132812 " stroke="none" fill="#6E6E6E" fill-rule="evenodd" stroke-width="0" fill-opacity="1" />
  <path d="M380.5105285644531,618.9758911132812 L374.4308776855469,619.6512451171875 L375.5755920410156,615.3613891601562 L380.5105285644531,618.9758911132812 " stroke="#6E6E6E" fill="none" stroke-width="1" stroke-opacity="1" />
  <path d="M346.2580871582031,652.3359375 L375.0943603515625,642.8787231445312 " stroke="#6E6E6E" fill="none" stroke-width="1" stroke-opacity="1" />
  <path d="M380.5105285644531,641.1024780273438 L375.78619384765625,644.9882202148438 L374.4025573730469,640.769287109375 L380.5105285644531,641.1024780273438 " stroke="none" fill="#6E6E6E" fill-rule="evenodd" stroke-width="0" fill-opacity="1" />
  <path d="M380.5105285644531,641.1024780273438 L375.78619384765625,644.9882202148438 L374.4025573730469,640.769287109375 L380.5105285644531,641.1024780273438 " stroke="#6E6E6E" fill="none" stroke-width="1" stroke-opacity="1" />
  <path d="M111.4666976928711,302.9381103515625 L168.8588104248047,302.9381103515625 L168.85879516601562,302.9381103515625 C173.55538940429688,302.9380798339844 177.3627471923828,306.74542236328125 177.3627471923828,311.4420166015625 C177.3627471923828,311.4420166015625 177.3627471923828,311.4420471191406 177.3627471923828,311.4420471191406 L177.3627471923828,311.4420471191406 L177.3627471923828,341.83416748046875 L177.3627471923828,341.83416748046875 C177.3627471923828,346.53076171875 173.55540466308594,350.3381042480469 168.8588104248047,350.3381042480469 L168.8588104248047,350.3381042480469 L111.4666976928711,350.3381042480469 L111.4666976928711,350.3381042480469 C106.77010345458984,350.3381042480469 102.96276092529297,346.53076171875 102.96276092529297,341.83416748046875 L102.96276092529297,311.4420471191406 L102.96275329589844,311.4420471191406 C102.96275329589844,306.7454528808594 106.77008819580078,302.9381103515625 111.46668243408203,302.9380798339844 " stroke="none" fill="#F2E279" fill-rule="evenodd" stroke-width="0" fill-opacity="1" />
  <text x="24.872522354125977" y="27.96988296508789" dx="0" dy="0" font-family="Segoe UI" font-size="8.249999754130847pt" fill="#000000" style="text-anchor:start" transform="matrix(0.750000 0.000000 0.000000 0.750000 102.96276092529297 302.9381103515625)">Raster To </text>
  <text x="14.721855163574219" y="42.599884033203125" dx="0" dy="0" font-family="Segoe UI" font-size="8.249999754130847pt" fill="#000000" style="text-anchor:start" transform="matrix(0.750000 0.000000 0.000000 0.750000 102.96276092529297 302.9381103515625)">Geodatabase</text>
  <path d="M111.4666976928711,302.9381103515625 L168.8588104248047,302.9381103515625 L168.85879516601562,302.9381103515625 C173.55538940429688,302.9380798339844 177.3627471923828,306.74542236328125 177.3627471923828,311.4420166015625 C177.3627471923828,311.4420166015625 177.3627471923828,311.4420471191406 177.3627471923828,311.4420471191406 L177.3627471923828,311.4420471191406 L177.3627471923828,341.83416748046875 L177.3627471923828,341.83416748046875 C177.3627471923828,346.53076171875 173.55540466308594,350.3381042480469 168.8588104248047,350.3381042480469 L168.8588104248047,350.3381042480469 L111.4666976928711,350.3381042480469 L111.4666976928711,350.3381042480469 C106.77010345458984,350.3381042480469 102.96276092529297,346.53076171875 102.96276092529297,341.83416748046875 L102.96276092529297,311.4420471191406 L102.96275329589844,311.4420471191406 C102.96275329589844,306.7454528808594 106.77008819580078,302.9381103515625 111.46668243408203,302.9380798339844 " stroke="none" fill="none" stroke-width="0.75" stroke-opacity="0" />
  <path d="M266.7627258300781,326.6380920410156 C266.7627258300781,339.72723388671875 250.1077423095703,350.3381042480469 229.56277465820312,350.3381042480469 C209.0177764892578,350.3381042480469 192.36276245117188,339.7272644042969 192.3627471923828,326.63812255859375 L192.3627471923828,326.63812255859375 C192.36273193359375,313.5489501953125 209.01773071289062,302.9381103515625 229.56271362304688,302.9381103515625 C250.1077117919922,302.9380798339844 266.7627258300781,313.5489196777344 266.7627258300781,326.6380920410156 C266.7627258300781,326.6380920410156 266.7627258300781,326.6380920410156 266.7627258300781,326.6380920410156 " stroke="none" fill="#83CC7C" fill-rule="evenodd" stroke-width="0" fill-opacity="1" />
  <text x="25.503023147583008" y="27.96988296508789" dx="0" dy="0" font-family="Segoe UI" font-size="8.249999754130847pt" fill="#000000" style="text-anchor:start" transform="matrix(0.750000 0.000000 0.000000 0.750000 192.36276245117188 302.9381103515625)">Updated </text>
  <text x="14.721855163574219" y="42.599884033203125" dx="0" dy="0" font-family="Segoe UI" font-size="8.249999754130847pt" fill="#000000" style="text-anchor:start" transform="matrix(0.750000 0.000000 0.000000 0.750000 192.36276245117188 302.9381103515625)">Geodatabase</text>
  <path d="M266.7627258300781,326.6380920410156 C266.7627258300781,339.72723388671875 250.1077423095703,350.3381042480469 229.56277465820312,350.3381042480469 C209.0177764892578,350.3381042480469 192.36276245117188,339.7272644042969 192.3627471923828,326.63812255859375 L192.3627471923828,326.63812255859375 C192.36273193359375,313.5489501953125 209.01773071289062,302.9381103515625 229.56271362304688,302.9381103515625 C250.1077117919922,302.9380798339844 266.7627258300781,313.5489196777344 266.7627258300781,326.6380920410156 C266.7627258300781,326.6380920410156 266.7627258300781,326.6380920410156 266.7627258300781,326.6380920410156 " stroke="none" fill="none" stroke-width="0.75" stroke-opacity="0" />
  <path d="M87.9627456665039,326.6380920410156 C87.9627456665039,339.72723388671875 71.3077392578125,350.3381042480469 50.76277542114258,350.3381042480469 C30.217792510986328,350.3381042480469 13.562780380249023,339.7272644042969 13.562763214111328,326.63812255859375 L13.562760353088379,326.63812255859375 C13.562743186950684,313.5489501953125 30.21773910522461,302.9381103515625 50.762725830078125,302.9381103515625 C71.3077163696289,302.9380798339844 87.96272277832031,313.5489196777344 87.9627456665039,326.6380920410156 C87.9627456665039,326.6380920410156 87.9627456665039,326.6380920410156 87.9627456665039,326.6380920410156 " stroke="none" fill="#70AECC" fill-rule="evenodd" stroke-width="0" fill-opacity="1" />
  <text x="15.895355224609375" y="35.284881591796875" dx="0" dy="0" font-family="Segoe UI" font-size="8.249999754130847pt" fill="#000000" style="text-anchor:start" transform="matrix(0.750000 0.000000 0.000000 0.750000 13.562766075134277 302.9381103515625)">depth_5x5.tif</text>
  <path d="M87.9627456665039,326.6380920410156 C87.9627456665039,339.72723388671875 71.3077392578125,350.3381042480469 50.76277542114258,350.3381042480469 C30.217792510986328,350.3381042480469 13.562780380249023,339.7272644042969 13.562763214111328,326.63812255859375 L13.562760353088379,326.63812255859375 C13.562743186950684,313.5489501953125 30.21773910522461,302.9381103515625 50.762725830078125,302.9381103515625 C71.3077163696289,302.9380798339844 87.96272277832031,313.5489196777344 87.9627456665039,326.6380920410156 C87.9627456665039,326.6380920410156 87.9627456665039,326.6380920410156 87.9627456665039,326.6380920410156 " stroke="none" fill="none" stroke-width="0.75" stroke-opacity="0" />
  <path d="M87.9627456665039,389.0380859375 C87.9627456665039,402.1272277832031 71.3077392578125,412.73809814453125 50.76277542114258,412.73809814453125 C30.217792510986328,412.73809814453125 13.562780380249023,402.12725830078125 13.562763214111328,389.0381164550781 L13.562760353088379,389.0381164550781 C13.562743186950684,375.9489440917969 30.21773910522461,365.3381042480469 50.762725830078125,365.3381042480469 C71.3077163696289,365.33807373046875 87.96272277832031,375.94891357421875 87.9627456665039,389.0380859375 C87.9627456665039,389.0380859375 87.9627456665039,389.0380859375 87.9627456665039,389.0380859375 " stroke="none" fill="#70AECC" fill-rule="evenodd" stroke-width="0" fill-opacity="1" />
  <text x="19.97618865966797" y="35.284881591796875" dx="0" dy="0" font-family="Segoe UI" font-size="8.249999754130847pt" fill="#000000" style="text-anchor:start" transform="matrix(0.750000 0.000000 0.000000 0.750000 13.562766075134277 365.3381042480469)">scratch.gdb</text>
  <path d="M87.9627456665039,389.0380859375 C87.9627456665039,402.1272277832031 71.3077392578125,412.73809814453125 50.76277542114258,412.73809814453125 C30.217792510986328,412.73809814453125 13.562780380249023,402.12725830078125 13.562763214111328,389.0381164550781 L13.562760353088379,389.0381164550781 C13.562743186950684,375.9489440917969 30.21773910522461,365.3381042480469 50.762725830078125,365.3381042480469 C71.3077163696289,365.33807373046875 87.96272277832031,375.94891357421875 87.9627456665039,389.0380859375 C87.9627456665039,389.0380859375 87.9627456665039,389.0380859375 87.9627456665039,389.0380859375 " stroke="none" fill="none" stroke-width="0.75" stroke-opacity="0" />
  <path d="M385.1622314453125,323.6812744140625 L442.5543518066406,323.6812744140625 L442.5543212890625,323.6812744140625 C447.25091552734375,323.6812438964844 451.0582580566406,327.48858642578125 451.0582580566406,332.1851806640625 C451.0582580566406,332.1851806640625 451.0582580566406,332.1852111816406 451.0582580566406,332.1852111816406 L451.05828857421875,332.1852111816406 L451.05828857421875,362.57733154296875 L451.0582580566406,362.57733154296875 C451.0582580566406,367.27392578125 447.2509460449219,371.0812683105469 442.5543518066406,371.0812683105469 L442.5543518066406,371.0812683105469 L385.1622314453125,371.0812683105469 L385.1622314453125,371.0812683105469 C380.46563720703125,371.0812683105469 376.6582946777344,367.27392578125 376.6582946777344,362.57733154296875 L376.6582946777344,332.1852111816406 L376.65826416015625,332.1852111816406 C376.65826416015625,327.4886169433594 380.4656066894531,323.6812744140625 385.1622009277344,323.6812438964844 " stroke="none" fill="#F2E279" fill-rule="evenodd" stroke-width="0" fill-opacity="1" />
  <text x="33.801021575927734" y="35.284881591796875" dx="0" dy="0" font-family="Segoe UI" font-size="8.249999754130847pt" fill="#000000" style="text-anchor:start" transform="matrix(0.750000 0.000000 0.000000 0.750000 376.6582946777344 323.6812744140625)">Slope</text>
  <path d="M385.1622314453125,323.6812744140625 L442.5543518066406,323.6812744140625 L442.5543212890625,323.6812744140625 C447.25091552734375,323.6812438964844 451.0582580566406,327.48858642578125 451.0582580566406,332.1851806640625 C451.0582580566406,332.1851806640625 451.0582580566406,332.1852111816406 451.0582580566406,332.1852111816406 L451.05828857421875,332.1852111816406 L451.05828857421875,362.57733154296875 L451.0582580566406,362.57733154296875 C451.0582580566406,367.27392578125 447.2509460449219,371.0812683105469 442.5543518066406,371.0812683105469 L442.5543518066406,371.0812683105469 L385.1622314453125,371.0812683105469 L385.1622314453125,371.0812683105469 C380.46563720703125,371.0812683105469 376.6582946777344,367.27392578125 376.6582946777344,362.57733154296875 L376.6582946777344,332.1852111816406 L376.65826416015625,332.1852111816406 C376.65826416015625,327.4886169433594 380.4656066894531,323.6812744140625 385.1622009277344,323.6812438964844 " stroke="none" fill="none" stroke-width="0.75" stroke-opacity="0" />
  <path d="M563.2652587890625,345.955810546875 C563.2652587890625,359.0449523925781 546.6102294921875,369.65582275390625 526.0653076171875,369.65582275390625 C505.5202941894531,369.65582275390625 488.86529541015625,359.04498291015625 488.8652648925781,345.9558410644531 L488.8652648925781,345.9558410644531 C488.8652648925781,332.8666687011719 505.520263671875,322.2558288574219 526.0652465820312,322.2558288574219 C546.6102294921875,322.25579833984375 563.2652587890625,332.86663818359375 563.2652587890625,345.955810546875 C563.2652587890625,345.955810546875 563.2652587890625,345.955810546875 563.2652587890625,345.955810546875 " stroke="none" fill="#83CC7C" fill-rule="evenodd" stroke-width="0" fill-opacity="1" />
  <text x="23.82769012451172" y="35.284881591796875" dx="0" dy="0" font-family="Segoe UI" font-size="8.249999754130847pt" fill="#000000" style="text-anchor:start" transform="matrix(0.750000 0.000000 0.000000 0.750000 488.86529541015625 322.2558288574219)">SlopeDeg</text>
  <path d="M563.2652587890625,345.955810546875 C563.2652587890625,359.0449523925781 546.6102294921875,369.65582275390625 526.0653076171875,369.65582275390625 C505.5202941894531,369.65582275390625 488.86529541015625,359.04498291015625 488.8652648925781,345.9558410644531 L488.8652648925781,345.9558410644531 C488.8652648925781,332.8666687011719 505.520263671875,322.2558288574219 526.0652465820312,322.2558288574219 C546.6102294921875,322.25579833984375 563.2652587890625,332.86663818359375 563.2652587890625,345.955810546875 C563.2652587890625,345.955810546875 563.2652587890625,345.955810546875 563.2652587890625,345.955810546875 " stroke="none" fill="none" stroke-width="0.75" stroke-opacity="0" />
  <path d="M89.39998626708984,491.1000061035156 C89.39998626708984,504.18914794921875 72.74497985839844,514.7999877929688 52.20001220703125,514.7999877929688 C31.655027389526367,514.7999877929688 15.000014305114746,504.1891784667969 14.99999713897705,491.10003662109375 L14.999994277954102,491.10003662109375 C14.999977111816406,478.0108642578125 31.65497398376465,467.4000244140625 52.1999626159668,467.4000244140625 C72.74494934082031,467.3999938964844 89.39996337890625,478.0108337402344 89.39998626708984,491.1000061035156 C89.39998626708984,491.1000061035156 89.39998626708984,491.1000061035156 89.39998626708984,491.1000061035156 " stroke="none" fill="#70AECC" fill-rule="evenodd" stroke-width="0" fill-opacity="1" />
  <text x="22.005355834960938" y="35.284881591796875" dx="0" dy="0" font-family="Segoe UI" font-size="8.249999754130847pt" fill="#000000" style="text-anchor:start" transform="matrix(0.750000 0.000000 0.000000 0.750000 15 467.4000244140625)">depth_5x5</text>
  <path d="M89.39998626708984,491.1000061035156 C89.39998626708984,504.18914794921875 72.74497985839844,514.7999877929688 52.20001220703125,514.7999877929688 C31.655027389526367,514.7999877929688 15.000014305114746,504.1891784667969 14.99999713897705,491.10003662109375 L14.999994277954102,491.10003662109375 C14.999977111816406,478.0108642578125 31.65497398376465,467.4000244140625 52.1999626159668,467.4000244140625 C72.74494934082031,467.3999938964844 89.39996337890625,478.0108337402344 89.39998626708984,491.1000061035156 C89.39998626708984,491.1000061035156 89.39998626708984,491.1000061035156 89.39998626708984,491.1000061035156 " stroke="none" fill="none" stroke-width="0.75" stroke-opacity="0" />
  <path d="M386.5876770019531,447.0558166503906 L443.97979736328125,447.0558166503906 L443.9797668457031,447.0558166503906 C448.6763610839844,447.0557861328125 452.48370361328125,450.8631286621094 452.48370361328125,455.5597229003906 C452.48370361328125,455.5597229003906 452.48370361328125,455.55975341796875 452.48370361328125,455.55975341796875 L452.4837341308594,455.55975341796875 L452.4837341308594,485.9518737792969 L452.48370361328125,485.9518737792969 C452.48370361328125,490.6484680175781 448.6763916015625,494.455810546875 443.97979736328125,494.455810546875 L443.97979736328125,494.455810546875 L386.5876770019531,494.455810546875 L386.5876770019531,494.455810546875 C381.8910827636719,494.455810546875 378.083740234375,490.6484680175781 378.083740234375,485.9518737792969 L378.083740234375,455.55975341796875 L378.0837097167969,455.55975341796875 C378.0837097167969,450.8631591796875 381.89105224609375,447.0558166503906 386.587646484375,447.0557861328125 " stroke="none" fill="#F2E279" fill-rule="evenodd" stroke-width="0" fill-opacity="1" />
  <text x="23.277023315429688" y="35.284881591796875" dx="0" dy="0" font-family="Segoe UI" font-size="8.249999754130847pt" fill="#000000" style="text-anchor:start" transform="matrix(0.750000 0.000000 0.000000 0.750000 378.083740234375 447.0558166503906)">Curvature</text>
  <path d="M386.5876770019531,447.0558166503906 L443.97979736328125,447.0558166503906 L443.9797668457031,447.0558166503906 C448.6763610839844,447.0557861328125 452.48370361328125,450.8631286621094 452.48370361328125,455.5597229003906 C452.48370361328125,455.5597229003906 452.48370361328125,455.55975341796875 452.48370361328125,455.55975341796875 L452.4837341308594,455.55975341796875 L452.4837341308594,485.9518737792969 L452.48370361328125,485.9518737792969 C452.48370361328125,490.6484680175781 448.6763916015625,494.455810546875 443.97979736328125,494.455810546875 L443.97979736328125,494.455810546875 L386.5876770019531,494.455810546875 L386.5876770019531,494.455810546875 C381.8910827636719,494.455810546875 378.083740234375,490.6484680175781 378.083740234375,485.9518737792969 L378.083740234375,455.55975341796875 L378.0837097167969,455.55975341796875 C378.0837097167969,450.8631591796875 381.89105224609375,447.0558166503906 386.587646484375,447.0557861328125 " stroke="none" fill="none" stroke-width="0.75" stroke-opacity="0" />
  <path d="M563.2652587890625,408.3558044433594 C563.2652587890625,421.4449462890625 546.6102294921875,432.0558166503906 526.0653076171875,432.0558166503906 C505.5202941894531,432.0558166503906 488.86529541015625,421.4449768066406 488.8652648925781,408.3558349609375 L488.8652648925781,408.3558349609375 C488.8652648925781,395.26666259765625 505.520263671875,384.65582275390625 526.0652465820312,384.65582275390625 C546.6102294921875,384.6557922363281 563.2652587890625,395.2666320800781 563.2652587890625,408.3558044433594 C563.2652587890625,408.3558044433594 563.2652587890625,408.3558044433594 563.2652587890625,408.3558044433594 " stroke="none" fill="#83CC7C" fill-rule="evenodd" stroke-width="0" fill-opacity="1" />
  <text x="35.83702087402344" y="35.284881591796875" dx="0" dy="0" font-family="Segoe UI" font-size="8.249999754130847pt" fill="#000000" style="text-anchor:start" transform="matrix(0.750000 0.000000 0.000000 0.750000 488.86529541015625 384.65582275390625)">Curv</text>
  <path d="M563.2652587890625,408.3558044433594 C563.2652587890625,421.4449462890625 546.6102294921875,432.0558166503906 526.0653076171875,432.0558166503906 C505.5202941894531,432.0558166503906 488.86529541015625,421.4449768066406 488.8652648925781,408.3558349609375 L488.8652648925781,408.3558349609375 C488.8652648925781,395.26666259765625 505.520263671875,384.65582275390625 526.0652465820312,384.65582275390625 C546.6102294921875,384.6557922363281 563.2652587890625,395.2666320800781 563.2652587890625,408.3558044433594 C563.2652587890625,408.3558044433594 563.2652587890625,408.3558044433594 563.2652587890625,408.3558044433594 " stroke="none" fill="none" stroke-width="0.75" stroke-opacity="0" />
  <path d="M563.2652587890625,470.75579833984375 C563.2652587890625,483.8449401855469 546.6102294921875,494.455810546875 526.0653076171875,494.455810546875 C505.5202941894531,494.455810546875 488.86529541015625,483.844970703125 488.8652648925781,470.7558288574219 L488.8652648925781,470.7558288574219 C488.8652648925781,457.6666564941406 505.520263671875,447.0558166503906 526.0652465820312,447.0558166503906 C546.6102294921875,447.0557861328125 563.2652587890625,457.6666259765625 563.2652587890625,470.75579833984375 C563.2652587890625,470.75579833984375 563.2652587890625,470.75579833984375 563.2652587890625,470.75579833984375 " stroke="none" fill="#83CC7C" fill-rule="evenodd" stroke-width="0" fill-opacity="1" />
  <text x="20.688190460205078" y="35.284881591796875" dx="0" dy="0" font-family="Segoe UI" font-size="8.249999754130847pt" fill="#000000" style="text-anchor:start" transform="matrix(0.750000 0.000000 0.000000 0.750000 488.86529541015625 447.0558166503906)">ProfileCurv</text>
  <path d="M563.2652587890625,470.75579833984375 C563.2652587890625,483.8449401855469 546.6102294921875,494.455810546875 526.0653076171875,494.455810546875 C505.5202941894531,494.455810546875 488.86529541015625,483.844970703125 488.8652648925781,470.7558288574219 L488.8652648925781,470.7558288574219 C488.8652648925781,457.6666564941406 505.520263671875,447.0558166503906 526.0652465820312,447.0558166503906 C546.6102294921875,447.0557861328125 563.2652587890625,457.6666259765625 563.2652587890625,470.75579833984375 C563.2652587890625,470.75579833984375 563.2652587890625,470.75579833984375 563.2652587890625,470.75579833984375 " stroke="none" fill="none" stroke-width="0.75" stroke-opacity="0" />
  <path d="M563.2652587890625,533.1558227539062 C563.2652587890625,546.2449340820312 546.6102294921875,556.8558349609375 526.0653076171875,556.8558349609375 C505.5202941894531,556.8558349609375 488.86529541015625,546.2449951171875 488.8652648925781,533.1558227539062 L488.8652648925781,533.1558227539062 C488.8652648925781,520.066650390625 505.520263671875,509.4558410644531 526.0652465820312,509.4558410644531 C546.6102294921875,509.455810546875 563.2652587890625,520.066650390625 563.2652587890625,533.1558227539062 C563.2652587890625,533.1558227539062 563.2652587890625,533.1558227539062 563.2652587890625,533.1558227539062 " stroke="none" fill="#83CC7C" fill-rule="evenodd" stroke-width="0" fill-opacity="1" />
  <text x="25.841522216796875" y="35.284881591796875" dx="0" dy="0" font-family="Segoe UI" font-size="8.249999754130847pt" fill="#000000" style="text-anchor:start" transform="matrix(0.750000 0.000000 0.000000 0.750000 488.86529541015625 509.4558410644531)">PlanCurv</text>
  <path d="M563.2652587890625,533.1558227539062 C563.2652587890625,546.2449340820312 546.6102294921875,556.8558349609375 526.0653076171875,556.8558349609375 C505.5202941894531,556.8558349609375 488.86529541015625,546.2449951171875 488.8652648925781,533.1558227539062 L488.8652648925781,533.1558227539062 C488.8652648925781,520.066650390625 505.520263671875,509.4558410644531 526.0652465820312,509.4558410644531 C546.6102294921875,509.455810546875 563.2652587890625,520.066650390625 563.2652587890625,533.1558227539062 C563.2652587890625,533.1558227539062 563.2652587890625,533.1558227539062 563.2652587890625,533.1558227539062 " stroke="none" fill="none" stroke-width="0.75" stroke-opacity="0" />
  <path d="M112.9039306640625,420.5999755859375 L170.29605102539062,420.5999755859375 L170.29603576660156,420.5999755859375 C174.99261474609375,420.5999450683594 178.7999725341797,424.40728759765625 178.7999725341797,429.1038818359375 C178.7999725341797,429.1038818359375 178.7999725341797,429.1039123535156 178.7999725341797,429.1039123535156 L178.79998779296875,429.1039123535156 L178.79998779296875,459.49603271484375 L178.7999725341797,459.49603271484375 C178.7999725341797,464.192626953125 174.99264526367188,467.9999694824219 170.29605102539062,467.9999694824219 L170.29605102539062,467.9999694824219 L112.9039306640625,467.9999694824219 L112.9039306640625,467.9999694824219 C108.20733642578125,467.9999694824219 104.39999389648438,464.192626953125 104.39999389648438,459.49603271484375 L104.39999389648438,429.1039123535156 L104.39998626708984,429.1039123535156 C104.39998626708984,424.4073181152344 108.20732116699219,420.5999755859375 112.90391540527344,420.5999450683594 " stroke="none" fill="#F2E279" fill-rule="evenodd" stroke-width="0" fill-opacity="1" />
  <text x="10.267688751220703" y="27.96988296508789" dx="0" dy="0" font-family="Segoe UI" font-size="8.249999754130847pt" fill="#000000" style="text-anchor:start" transform="matrix(0.750000 0.000000 0.000000 0.750000 104.39999389648438 420.5999755859375)">Surface Area to </text>
  <text x="19.554855346679688" y="42.599884033203125" dx="0" dy="0" font-family="Segoe UI" font-size="8.249999754130847pt" fill="#000000" style="text-anchor:start" transform="matrix(0.750000 0.000000 0.000000 0.750000 104.39999389648438 420.5999755859375)">Planar Area</text>
  <path d="M112.9039306640625,420.5999755859375 L170.29605102539062,420.5999755859375 L170.29603576660156,420.5999755859375 C174.99261474609375,420.5999450683594 178.7999725341797,424.40728759765625 178.7999725341797,429.1038818359375 C178.7999725341797,429.1038818359375 178.7999725341797,429.1039123535156 178.7999725341797,429.1039123535156 L178.79998779296875,429.1039123535156 L178.79998779296875,459.49603271484375 L178.7999725341797,459.49603271484375 C178.7999725341797,464.192626953125 174.99264526367188,467.9999694824219 170.29605102539062,467.9999694824219 L170.29605102539062,467.9999694824219 L112.9039306640625,467.9999694824219 L112.9039306640625,467.9999694824219 C108.20733642578125,467.9999694824219 104.39999389648438,464.192626953125 104.39999389648438,459.49603271484375 L104.39999389648438,429.1039123535156 L104.39998626708984,429.1039123535156 C104.39998626708984,424.4073181152344 108.20732116699219,420.5999755859375 112.90391540527344,420.5999450683594 " stroke="none" fill="none" stroke-width="0.75" stroke-opacity="0" />
  <path d="M268.199951171875,413.1000061035156 C268.199951171875,426.18914794921875 251.5449676513672,436.8000183105469 231,436.8000183105469 C210.4550018310547,436.8000183105469 193.79998779296875,426.1891784667969 193.7999725341797,413.10003662109375 L193.7999725341797,413.10003662109375 C193.79995727539062,400.0108642578125 210.4549560546875,389.4000244140625 230.99993896484375,389.4000244140625 C251.54493713378906,389.3999938964844 268.199951171875,400.0108337402344 268.199951171875,413.1000061035156 C268.199951171875,413.1000061035156 268.199951171875,413.1000061035156 268.199951171875,413.1000061035156 " stroke="none" fill="#83CC7C" fill-rule="evenodd" stroke-width="0" fill-opacity="1" />
  <text x="15.829188346862793" y="35.284881591796875" dx="0" dy="0" font-family="Segoe UI" font-size="8.249999754130847pt" fill="#000000" style="text-anchor:start" transform="matrix(0.750000 0.000000 0.000000 0.750000 193.79998779296875 389.4000244140625)">RugosityACR</text>
  <path d="M268.199951171875,413.1000061035156 C268.199951171875,426.18914794921875 251.5449676513672,436.8000183105469 231,436.8000183105469 C210.4550018310547,436.8000183105469 193.79998779296875,426.1891784667969 193.7999725341797,413.10003662109375 L193.7999725341797,413.10003662109375 C193.79995727539062,400.0108642578125 210.4549560546875,389.4000244140625 230.99993896484375,389.4000244140625 C251.54493713378906,389.3999938964844 268.199951171875,400.0108337402344 268.199951171875,413.1000061035156 C268.199951171875,413.1000061035156 268.199951171875,413.1000061035156 268.199951171875,413.1000061035156 " stroke="none" fill="none" stroke-width="0.75" stroke-opacity="0" />
  <path d="M268.199951171875,475.5 C268.199951171875,488.5891418457031 251.5449676513672,499.20001220703125 231,499.20001220703125 C210.4550018310547,499.20001220703125 193.79998779296875,488.58917236328125 193.7999725341797,475.5000305175781 L193.7999725341797,475.5000305175781 C193.79995727539062,462.4108581542969 210.4549560546875,451.8000183105469 230.99993896484375,451.8000183105469 C251.54493713378906,451.79998779296875 268.199951171875,462.41082763671875 268.199951171875,475.5 C268.199951171875,475.5 268.199951171875,475.5 268.199951171875,475.5 " stroke="none" fill="#83CC7C" fill-rule="evenodd" stroke-width="0" fill-opacity="1" />
  <text x="24.70535659790039" y="35.284881591796875" dx="0" dy="0" font-family="Segoe UI" font-size="8.249999754130847pt" fill="#000000" style="text-anchor:start" transform="matrix(0.750000 0.000000 0.000000 0.750000 193.79998779296875 451.8000183105469)">area_ACR</text>
  <path d="M268.199951171875,475.5 C268.199951171875,488.5891418457031 251.5449676513672,499.20001220703125 231,499.20001220703125 C210.4550018310547,499.20001220703125 193.79998779296875,488.58917236328125 193.7999725341797,475.5000305175781 L193.7999725341797,475.5000305175781 C193.79995727539062,462.4108581542969 210.4549560546875,451.8000183105469 230.99993896484375,451.8000183105469 C251.54493713378906,451.79998779296875 268.199951171875,462.41082763671875 268.199951171875,475.5 C268.199951171875,475.5 268.199951171875,475.5 268.199951171875,475.5 " stroke="none" fill="none" stroke-width="0.75" stroke-opacity="0" />
  <path d="M112.9039306640625,514.199951171875 L170.29605102539062,514.199951171875 L170.29603576660156,514.199951171875 C174.99261474609375,514.1998901367188 178.7999725341797,518.0072631835938 178.7999725341797,522.703857421875 C178.7999725341797,522.703857421875 178.7999725341797,522.703857421875 178.7999725341797,522.703857421875 L178.79998779296875,522.703857421875 L178.79998779296875,553.0960083007812 L178.7999725341797,553.0960083007812 C178.7999725341797,557.7926025390625 174.99264526367188,561.5999145507812 170.29605102539062,561.5999145507812 L170.29605102539062,561.5999145507812 L112.9039306640625,561.5999145507812 L112.9039306640625,561.5999145507812 C108.20733642578125,561.5999145507812 104.39999389648438,557.7926025390625 104.39999389648438,553.0960083007812 L104.39999389648438,522.703857421875 L104.39998626708984,522.703857421875 C104.39998626708984,518.0072631835938 108.20732116699219,514.199951171875 112.90391540527344,514.1998901367188 " stroke="none" fill="#F2E279" fill-rule="evenodd" stroke-width="0" fill-opacity="1" />
  <text x="31.67852210998535" y="20.654884338378906" dx="0" dy="0" font-family="Segoe UI" font-size="8.249999754130847pt" fill="#000000" style="text-anchor:start" transform="matrix(0.750000 0.000000 0.000000 0.750000 104.39999389648438 514.199951171875)">Terrain </text>
  <text x="17.365856170654297" y="35.284881591796875" dx="0" dy="0" font-family="Segoe UI" font-size="8.249999754130847pt" fill="#000000" style="text-anchor:start" transform="matrix(0.750000 0.000000 0.000000 0.750000 104.39999389648438 514.199951171875)">Ruggedness </text>
  <text x="33.68052291870117" y="49.91488265991211" dx="0" dy="0" font-family="Segoe UI" font-size="8.249999754130847pt" fill="#000000" style="text-anchor:start" transform="matrix(0.750000 0.000000 0.000000 0.750000 104.39999389648438 514.199951171875)">(VRM)</text>
  <path d="M112.9039306640625,514.199951171875 L170.29605102539062,514.199951171875 L170.29603576660156,514.199951171875 C174.99261474609375,514.1998901367188 178.7999725341797,518.0072631835938 178.7999725341797,522.703857421875 C178.7999725341797,522.703857421875 178.7999725341797,522.703857421875 178.7999725341797,522.703857421875 L178.79998779296875,522.703857421875 L178.79998779296875,553.0960083007812 L178.7999725341797,553.0960083007812 C178.7999725341797,557.7926025390625 174.99264526367188,561.5999145507812 170.29605102539062,561.5999145507812 L170.29605102539062,561.5999145507812 L112.9039306640625,561.5999145507812 L112.9039306640625,561.5999145507812 C108.20733642578125,561.5999145507812 104.39999389648438,557.7926025390625 104.39999389648438,553.0960083007812 L104.39999389648438,522.703857421875 L104.39998626708984,522.703857421875 C104.39998626708984,518.0072631835938 108.20732116699219,514.199951171875 112.90391540527344,514.1998901367188 " stroke="none" fill="none" stroke-width="0.75" stroke-opacity="0" />
  <path d="M268.199951171875,537.89990234375 C268.199951171875,550.9890747070312 251.5449676513672,561.5999145507812 231,561.5999145507812 C210.4550018310547,561.5999145507812 193.79998779296875,550.9890747070312 193.7999725341797,537.8999633789062 L193.7999725341797,537.8999633789062 C193.79995727539062,524.810791015625 210.4549560546875,514.199951171875 230.99993896484375,514.199951171875 C251.54493713378906,514.1998901367188 268.199951171875,524.8107299804688 268.199951171875,537.89990234375 C268.199951171875,537.89990234375 268.199951171875,537.89990234375 268.199951171875,537.89990234375 " stroke="none" fill="#83CC7C" fill-rule="evenodd" stroke-width="0" fill-opacity="1" />
  <text x="14.319189071655273" y="35.284881591796875" dx="0" dy="0" font-family="Segoe UI" font-size="8.249999754130847pt" fill="#000000" style="text-anchor:start" transform="matrix(0.750000 0.000000 0.000000 0.750000 193.79998779296875 514.199951171875)">RugosityVRM</text>
  <path d="M268.199951171875,537.89990234375 C268.199951171875,550.9890747070312 251.5449676513672,561.5999145507812 231,561.5999145507812 C210.4550018310547,561.5999145507812 193.79998779296875,550.9890747070312 193.7999725341797,537.8999633789062 L193.7999725341797,537.8999633789062 C193.79995727539062,524.810791015625 210.4549560546875,514.199951171875 230.99993896484375,514.199951171875 C251.54493713378906,514.1998901367188 268.199951171875,524.8107299804688 268.199951171875,537.89990234375 C268.199951171875,537.89990234375 268.199951171875,537.89990234375 268.199951171875,537.89990234375 " stroke="none" fill="none" stroke-width="0.75" stroke-opacity="0" />
  <path d="M112.9039306640625,576.5999755859375 L170.29605102539062,576.5999755859375 L170.29603576660156,576.5999755859375 C174.99261474609375,576.5999145507812 178.7999725341797,580.4072875976562 178.7999725341797,585.1038818359375 C178.7999725341797,585.1038818359375 178.7999725341797,585.1038818359375 178.7999725341797,585.1038818359375 L178.79998779296875,585.1038818359375 L178.79998779296875,615.4960327148438 L178.7999725341797,615.4960327148438 C178.7999725341797,620.192626953125 174.99264526367188,623.9999389648438 170.29605102539062,623.9999389648438 L170.29605102539062,623.9999389648438 L112.9039306640625,623.9999389648438 L112.9039306640625,623.9999389648438 C108.20733642578125,623.9999389648438 104.39999389648438,620.192626953125 104.39999389648438,615.4960327148438 L104.39999389648438,585.1038818359375 L104.39998626708984,585.1038818359375 C104.39998626708984,580.4072875976562 108.20732116699219,576.5999755859375 112.90391540527344,576.5999145507812 " stroke="none" fill="#F2E279" fill-rule="evenodd" stroke-width="0" fill-opacity="1" />
  <text x="5.183355808258057" y="27.96988296508789" dx="0" dy="0" font-family="Segoe UI" font-size="8.249999754130847pt" fill="#000000" style="text-anchor:start" transform="matrix(0.750000 0.000000 0.000000 0.750000 104.39999389648438 576.5999755859375)">Build Broad Scale </text>
  <text x="39.46002197265625" y="42.599884033203125" dx="0" dy="0" font-family="Segoe UI" font-size="8.249999754130847pt" fill="#000000" style="text-anchor:start" transform="matrix(0.750000 0.000000 0.000000 0.750000 104.39999389648438 576.5999755859375)">BPI</text>
  <path d="M112.9039306640625,576.5999755859375 L170.29605102539062,576.5999755859375 L170.29603576660156,576.5999755859375 C174.99261474609375,576.5999145507812 178.7999725341797,580.4072875976562 178.7999725341797,585.1038818359375 C178.7999725341797,585.1038818359375 178.7999725341797,585.1038818359375 178.7999725341797,585.1038818359375 L178.79998779296875,585.1038818359375 L178.79998779296875,615.4960327148438 L178.7999725341797,615.4960327148438 C178.7999725341797,620.192626953125 174.99264526367188,623.9999389648438 170.29605102539062,623.9999389648438 L170.29605102539062,623.9999389648438 L112.9039306640625,623.9999389648438 L112.9039306640625,623.9999389648438 C108.20733642578125,623.9999389648438 104.39999389648438,620.192626953125 104.39999389648438,615.4960327148438 L104.39999389648438,585.1038818359375 L104.39998626708984,585.1038818359375 C104.39998626708984,580.4072875976562 108.20732116699219,576.5999755859375 112.90391540527344,576.5999145507812 " stroke="none" fill="none" stroke-width="0.75" stroke-opacity="0" />
  <path d="M268.199951171875,600.2999267578125 C268.199951171875,613.3890991210938 251.5449676513672,623.9999389648438 231,623.9999389648438 C210.4550018310547,623.9999389648438 193.79998779296875,613.3890991210938 193.7999725341797,600.2999877929688 L193.7999725341797,600.2999877929688 C193.79995727539062,587.2108154296875 210.4549560546875,576.5999755859375 230.99993896484375,576.5999755859375 C251.54493713378906,576.5999145507812 268.199951171875,587.2107543945312 268.199951171875,600.2999267578125 C268.199951171875,600.2999267578125 268.199951171875,600.2999267578125 268.199951171875,600.2999267578125 " stroke="none" fill="#83CC7C" fill-rule="evenodd" stroke-width="0" fill-opacity="1" />
  <text x="5.83002233505249" y="35.284881591796875" dx="0" dy="0" font-family="Segoe UI" font-size="8.249999754130847pt" fill="#000000" style="text-anchor:start" transform="matrix(0.750000 0.000000 0.000000 0.750000 193.79998779296875 576.5999755859375)">BPI_Broad_UnStd</text>
  <path d="M268.199951171875,600.2999267578125 C268.199951171875,613.3890991210938 251.5449676513672,623.9999389648438 231,623.9999389648438 C210.4550018310547,623.9999389648438 193.79998779296875,613.3890991210938 193.7999725341797,600.2999877929688 L193.7999725341797,600.2999877929688 C193.79995727539062,587.2108154296875 210.4549560546875,576.5999755859375 230.99993896484375,576.5999755859375 C251.54493713378906,576.5999145507812 268.199951171875,587.2107543945312 268.199951171875,600.2999267578125 C268.199951171875,600.2999267578125 268.199951171875,600.2999267578125 268.199951171875,600.2999267578125 " stroke="none" fill="none" stroke-width="0.75" stroke-opacity="0" />
  <path d="M112.9039306640625,639 L170.29605102539062,639 L170.29603576660156,639 C174.99261474609375,638.9999389648438 178.7999725341797,642.8073120117188 178.7999725341797,647.50390625 C178.7999725341797,647.50390625 178.7999725341797,647.50390625 178.7999725341797,647.50390625 L178.79998779296875,647.50390625 L178.79998779296875,677.8960571289062 L178.7999725341797,677.8960571289062 C178.7999725341797,682.5926513671875 174.99264526367188,686.3999633789062 170.29605102539062,686.3999633789062 L170.29605102539062,686.3999633789062 L112.9039306640625,686.3999633789062 L112.9039306640625,686.3999633789062 C108.20733642578125,686.3999633789062 104.39999389648438,682.5926513671875 104.39999389648438,677.8960571289062 L104.39999389648438,647.50390625 L104.39998626708984,647.50390625 C104.39998626708984,642.8073120117188 108.20732116699219,639 112.90391540527344,638.9999389648438 " stroke="none" fill="#F2E279" fill-rule="evenodd" stroke-width="0" fill-opacity="1" />
  <text x="9.500021934509277" y="27.96988296508789" dx="0" dy="0" font-family="Segoe UI" font-size="8.249999754130847pt" fill="#000000" style="text-anchor:start" transform="matrix(0.750000 0.000000 0.000000 0.750000 104.39999389648438 639)">Build Fine Scale </text>
  <text x="39.46002197265625" y="42.599884033203125" dx="0" dy="0" font-family="Segoe UI" font-size="8.249999754130847pt" fill="#000000" style="text-anchor:start" transform="matrix(0.750000 0.000000 0.000000 0.750000 104.39999389648438 639)">BPI</text>
  <path d="M112.9039306640625,639 L170.29605102539062,639 L170.29603576660156,639 C174.99261474609375,638.9999389648438 178.7999725341797,642.8073120117188 178.7999725341797,647.50390625 C178.7999725341797,647.50390625 178.7999725341797,647.50390625 178.7999725341797,647.50390625 L178.79998779296875,647.50390625 L178.79998779296875,677.8960571289062 L178.7999725341797,677.8960571289062 C178.7999725341797,682.5926513671875 174.99264526367188,686.3999633789062 170.29605102539062,686.3999633789062 L170.29605102539062,686.3999633789062 L112.9039306640625,686.3999633789062 L112.9039306640625,686.3999633789062 C108.20733642578125,686.3999633789062 104.39999389648438,682.5926513671875 104.39999389648438,677.8960571289062 L104.39999389648438,647.50390625 L104.39998626708984,647.50390625 C104.39998626708984,642.8073120117188 108.20732116699219,639 112.90391540527344,638.9999389648438 " stroke="none" fill="none" stroke-width="0.75" stroke-opacity="0" />
  <path d="M268.199951171875,662.699951171875 C268.199951171875,675.7891235351562 251.5449676513672,686.3999633789062 231,686.3999633789062 C210.4550018310547,686.3999633789062 193.79998779296875,675.7891235351562 193.7999725341797,662.7000122070312 L193.7999725341797,662.7000122070312 C193.79995727539062,649.61083984375 210.4549560546875,639 230.99993896484375,639 C251.54493713378906,638.9999389648438 268.199951171875,649.6107788085938 268.199951171875,662.699951171875 C268.199951171875,662.699951171875 268.199951171875,662.699951171875 268.199951171875,662.699951171875 " stroke="none" fill="#83CC7C" fill-rule="evenodd" stroke-width="0" fill-opacity="1" />
  <text x="10.15002155303955" y="35.284881591796875" dx="0" dy="0" font-family="Segoe UI" font-size="8.249999754130847pt" fill="#000000" style="text-anchor:start" transform="matrix(0.750000 0.000000 0.000000 0.750000 193.79998779296875 639)">BPI_Fine_UnStd</text>
  <path d="M268.199951171875,662.699951171875 C268.199951171875,675.7891235351562 251.5449676513672,686.3999633789062 231,686.3999633789062 C210.4550018310547,686.3999633789062 193.79998779296875,675.7891235351562 193.7999725341797,662.7000122070312 L193.7999725341797,662.7000122070312 C193.79995727539062,649.61083984375 210.4549560546875,639 230.99993896484375,639 C251.54493713378906,638.9999389648438 268.199951171875,649.6107788085938 268.199951171875,662.699951171875 C268.199951171875,662.699951171875 268.199951171875,662.699951171875 268.199951171875,662.699951171875 " stroke="none" fill="none" stroke-width="0.75" stroke-opacity="0" />
  <path d="M389.01446533203125,605.2022705078125 L446.4065856933594,605.2022705078125 L446.40655517578125,605.2022705078125 C451.1031494140625,605.2022094726562 454.9104919433594,609.0095825195312 454.9104919433594,613.7061767578125 C454.9104919433594,613.7061767578125 454.9104919433594,613.7061767578125 454.9104919433594,613.7061767578125 L454.9105224609375,613.7061767578125 L454.9105224609375,644.0983276367188 L454.9104919433594,644.0983276367188 C454.9104919433594,648.794921875 451.1031799316406,652.6022338867188 446.4065856933594,652.6022338867188 L446.4065856933594,652.6022338867188 L389.01446533203125,652.6022338867188 L389.01446533203125,652.6022338867188 C384.31787109375,652.6022338867188 380.5105285644531,648.794921875 380.5105285644531,644.0983276367188 L380.5105285644531,613.7061767578125 L380.510498046875,613.7061767578125 C380.510498046875,609.0095825195312 384.3178405761719,605.2022705078125 389.0144348144531,605.2022094726562 " stroke="none" fill="#F2E279" fill-rule="evenodd" stroke-width="0" fill-opacity="1" />
  <text x="7.6236891746521" y="35.284881591796875" dx="0" dy="0" font-family="Segoe UI" font-size="8.249999754130847pt" fill="#000000" style="text-anchor:start" transform="matrix(0.750000 0.000000 0.000000 0.750000 380.5105285644531 605.2022705078125)">Standardize BPIs</text>
  <path d="M389.01446533203125,605.2022705078125 L446.4065856933594,605.2022705078125 L446.40655517578125,605.2022705078125 C451.1031494140625,605.2022094726562 454.9104919433594,609.0095825195312 454.9104919433594,613.7061767578125 C454.9104919433594,613.7061767578125 454.9104919433594,613.7061767578125 454.9104919433594,613.7061767578125 L454.9105224609375,613.7061767578125 L454.9105224609375,644.0983276367188 L454.9104919433594,644.0983276367188 C454.9104919433594,648.794921875 451.1031799316406,652.6022338867188 446.4065856933594,652.6022338867188 L446.4065856933594,652.6022338867188 L389.01446533203125,652.6022338867188 L389.01446533203125,652.6022338867188 C384.31787109375,652.6022338867188 380.5105285644531,648.794921875 380.5105285644531,644.0983276367188 L380.5105285644531,613.7061767578125 L380.510498046875,613.7061767578125 C380.510498046875,609.0095825195312 384.3178405761719,605.2022705078125 389.0144348144531,605.2022094726562 " stroke="none" fill="none" stroke-width="0.75" stroke-opacity="0" />
  <path d="M566.6477661132812,598.949951171875 C566.6477661132812,612.0391235351562 549.9927978515625,622.6499633789062 529.4478149414062,622.6499633789062 C508.90283203125,622.6499633789062 492.2478332519531,612.0391235351562 492.247802734375,598.9500122070312 L492.247802734375,598.9500122070312 C492.247802734375,585.86083984375 508.9028015136719,575.25 529.44775390625,575.25 C549.9927368164062,575.2499389648438 566.6477661132812,585.8607788085938 566.6477661132812,598.949951171875 C566.6477661132812,598.949951171875 566.6477661132812,598.949951171875 566.6477661132812,598.949951171875 " stroke="none" fill="#83CC7C" fill-rule="evenodd" stroke-width="0" fill-opacity="1" />
  <text x="22.85002326965332" y="35.284881591796875" dx="0" dy="0" font-family="Segoe UI" font-size="8.249999754130847pt" fill="#000000" style="text-anchor:start" transform="matrix(0.750000 0.000000 0.000000 0.750000 492.2478332519531 575.25)">BPI_Broad</text>
  <path d="M566.6477661132812,598.949951171875 C566.6477661132812,612.0391235351562 549.9927978515625,622.6499633789062 529.4478149414062,622.6499633789062 C508.90283203125,622.6499633789062 492.2478332519531,612.0391235351562 492.247802734375,598.9500122070312 L492.247802734375,598.9500122070312 C492.247802734375,585.86083984375 508.9028015136719,575.25 529.44775390625,575.25 C549.9927368164062,575.2499389648438 566.6477661132812,585.8607788085938 566.6477661132812,598.949951171875 C566.6477661132812,598.949951171875 566.6477661132812,598.949951171875 566.6477661132812,598.949951171875 " stroke="none" fill="none" stroke-width="0.75" stroke-opacity="0" />
  <path d="M566.6477661132812,662.1438598632812 C566.6477661132812,675.2330322265625 549.9927978515625,685.8438720703125 529.4478149414062,685.8438720703125 C508.90283203125,685.8438720703125 492.2478332519531,675.2330322265625 492.247802734375,662.1439208984375 L492.247802734375,662.1439208984375 C492.247802734375,649.0547485351562 508.9028015136719,638.4439086914062 529.44775390625,638.4439086914062 C549.9927368164062,638.44384765625 566.6477661132812,649.0546875 566.6477661132812,662.1438598632812 C566.6477661132812,662.1438598632812 566.6477661132812,662.1438598632812 566.6477661132812,662.1438598632812 " stroke="none" fill="#83CC7C" fill-rule="evenodd" stroke-width="0" fill-opacity="1" />
  <text x="27.17002296447754" y="35.284881591796875" dx="0" dy="0" font-family="Segoe UI" font-size="8.249999754130847pt" fill="#000000" style="text-anchor:start" transform="matrix(0.750000 0.000000 0.000000 0.750000 492.2478332519531 638.4439086914062)">BPI_Fine</text>
  <path d="M566.6477661132812,662.1438598632812 C566.6477661132812,675.2330322265625 549.9927978515625,685.8438720703125 529.4478149414062,685.8438720703125 C508.90283203125,685.8438720703125 492.2478332519531,675.2330322265625 492.247802734375,662.1439208984375 L492.247802734375,662.1439208984375 C492.247802734375,649.0547485351562 508.9028015136719,638.4439086914062 529.44775390625,638.4439086914062 C549.9927368164062,638.44384765625 566.6477661132812,649.0546875 566.6477661132812,662.1438598632812 C566.6477661132812,662.1438598632812 566.6477661132812,662.1438598632812 566.6477661132812,662.1438598632812 " stroke="none" fill="none" stroke-width="0.75" stroke-opacity="0" />
  <path d="M350.403076171875,601.015625 C350.403076171875,614.1047973632812 333.7480773925781,624.7156372070312 313.203125,624.7156372070312 C292.6581115722656,624.7156372070312 276.00311279296875,614.1047973632812 276.0030822753906,601.0156860351562 L276.0030822753906,601.0156860351562 C276.0030822753906,587.926513671875 292.6580810546875,577.315673828125 313.20306396484375,577.315673828125 C333.748046875,577.3156127929688 350.403076171875,587.9264526367188 350.403076171875,601.015625 C350.403076171875,601.015625 350.403076171875,601.015625 350.403076171875,601.015625 " stroke="none" fill="#70AECC" fill-rule="evenodd" stroke-width="0" fill-opacity="1" />
  <text x="5.83002233505249" y="27.96988296508789" dx="0" dy="0" font-family="Segoe UI" font-size="8.249999754130847pt" fill="#000000" style="text-anchor:start" transform="matrix(0.750000 0.000000 0.000000 0.750000 276.00311279296875 577.315673828125)">BPI_Broad_UnStd </text>
  <text x="42.36051940917969" y="42.599884033203125" dx="0" dy="0" font-family="Segoe UI" font-size="8.249999754130847pt" fill="#000000" style="text-anchor:start" transform="matrix(0.750000 0.000000 0.000000 0.750000 276.00311279296875 577.315673828125)">(2)</text>
  <path d="M350.403076171875,601.015625 C350.403076171875,614.1047973632812 333.7480773925781,624.7156372070312 313.203125,624.7156372070312 C292.6581115722656,624.7156372070312 276.00311279296875,614.1047973632812 276.0030822753906,601.0156860351562 L276.0030822753906,601.0156860351562 C276.0030822753906,587.926513671875 292.6580810546875,577.315673828125 313.20306396484375,577.315673828125 C333.748046875,577.3156127929688 350.403076171875,587.9264526367188 350.403076171875,601.015625 C350.403076171875,601.015625 350.403076171875,601.015625 350.403076171875,601.015625 " stroke="none" fill="none" stroke-width="0.75" stroke-opacity="0" />
  <path d="M350.403076171875,663.1766967773438 C350.403076171875,676.265869140625 333.7480773925781,686.876708984375 313.203125,686.876708984375 C292.6581115722656,686.876708984375 276.00311279296875,676.265869140625 276.0030822753906,663.1767578125 L276.0030822753906,663.1767578125 C276.0030822753906,650.0875854492188 292.6580810546875,639.4767456054688 313.20306396484375,639.4767456054688 C333.748046875,639.4766845703125 350.403076171875,650.0875244140625 350.403076171875,663.1766967773438 C350.403076171875,663.1766967773438 350.403076171875,663.1766967773438 350.403076171875,663.1766967773438 " stroke="none" fill="#70AECC" fill-rule="evenodd" stroke-width="0" fill-opacity="1" />
  <text x="2.356688976287842" y="35.284881591796875" dx="0" dy="0" font-family="Segoe UI" font-size="8.249999754130847pt" fill="#000000" style="text-anchor:start" transform="matrix(0.750000 0.000000 0.000000 0.750000 276.00311279296875 639.4767456054688)">BPI_Fine_UnStd (2)</text>
  <path d="M350.403076171875,663.1766967773438 C350.403076171875,676.265869140625 333.7480773925781,686.876708984375 313.203125,686.876708984375 C292.6581115722656,686.876708984375 276.00311279296875,676.265869140625 276.0030822753906,663.1767578125 L276.0030822753906,663.1767578125 C276.0030822753906,650.0875854492188 292.6580810546875,639.4767456054688 313.20306396484375,639.4767456054688 C333.748046875,639.4766845703125 350.403076171875,650.0875244140625 350.403076171875,663.1766967773438 C350.403076171875,663.1766967773438 350.403076171875,663.1766967773438 350.403076171875,663.1766967773438 " stroke="none" fill="none" stroke-width="0.75" stroke-opacity="0" />
</svg>